<svg xmlns="http://www.w3.org/2000/svg" viewBox="0 0 200 200" width="200" height="200">
  <defs>
    <linearGradient id="brainGrad" x1="0%" y1="0%" x2="100%" y2="100%">
      <stop offset="0%" style="stop-color:#0ea5e9;stop-opacity:1" />
      <stop offset="100%" style="stop-color:#2563eb;stop-opacity:1" />
    </linearGradient>
    <linearGradient id="circuitGrad" x1="0%" y1="0%" x2="100%" y2="0%">
      <stop offset="0%" style="stop-color:#06b6d4;stop-opacity:1" />
      <stop offset="100%" style="stop-color:#3b82f6;stop-opacity:1" />
    </linearGradient>
  </defs>
  
  <circle cx="100" cy="95" r="70" fill="none" stroke="url(#brainGrad)" stroke-width="3"/>
  <circle cx="100" cy="95" r="55" fill="none" stroke="url(#brainGrad)" stroke-width="2" opacity="0.6"/>
  
  <path d="M70 70 Q55 85 60 100 Q55 115 70 130" fill="none" stroke="url(#circuitGrad)" stroke-width="3" stroke-linecap="round"/>
  <path d="M130 70 Q145 85 140 100 Q145 115 130 130" fill="none" stroke="url(#circuitGrad)" stroke-width="3" stroke-linecap="round"/>
  
  <path d="M85 60 Q100 50 115 60" fill="none" stroke="url(#circuitGrad)" stroke-width="3" stroke-linecap="round"/>
  <path d="M85 130 Q100 140 115 130" fill="none" stroke="url(#circuitGrad)" stroke-width="3" stroke-linecap="round"/>
  
  <circle cx="100" cy="95" r="20" fill="url(#brainGrad)"/>
  <circle cx="100" cy="95" r="12" fill="#fff"/>
  <circle cx="100" cy="95" r="6" fill="url(#brainGrad)"/>
  
  <line x1="100" y1="75" x2="100" y2="60" stroke="url(#circuitGrad)" stroke-width="2"/>
  <line x1="100" y1="115" x2="100" y2="130" stroke="url(#circuitGrad)" stroke-width="2"/>
  <line x1="80" y1="95" x2="65" y2="95" stroke="url(#circuitGrad)" stroke-width="2"/>
  <line x1="120" y1="95" x2="135" y2="95" stroke="url(#circuitGrad)" stroke-width="2"/>
  
  <circle cx="100" cy="55" r="4" fill="#06b6d4"/>
  <circle cx="100" cy="135" r="4" fill="#06b6d4"/>
  <circle cx="60" cy="95" r="4" fill="#06b6d4"/>
  <circle cx="140" cy="95" r="4" fill="#06b6d4"/>
  
  <path d="M75 165 L100 180 L125 165" fill="none" stroke="url(#brainGrad)" stroke-width="3" stroke-linecap="round"/>
  <path d="M85 170 L100 185 L115 170" fill="none" stroke="url(#brainGrad)" stroke-width="2" stroke-linecap="round" opacity="0.6"/>
  
  <text x="100" y="195" text-anchor="middle" font-family="Arial, sans-serif" font-size="10" fill="#2563eb" font-weight="bold">AI COPILOT</text>
</svg>