<svg xmlns="http://www.w3.org/2000/svg" viewBox="0 0 200 200" width="200" height="200">
  <defs>
    <linearGradient id="shieldGrad" x1="0%" y1="0%" x2="100%" y2="100%">
      <stop offset="0%" style="stop-color:#ec4899;stop-opacity:1" />
      <stop offset="100%" style="stop-color:#be185d;stop-opacity:1" />
    </linearGradient>
    <linearGradient id="innerGrad" x1="0%" y1="0%" x2="100%" y2="100%">
      <stop offset="0%" style="stop-color:#f472b6;stop-opacity:1" />
      <stop offset="100%" style="stop-color:#db2777;stop-opacity:1" />
    </linearGradient>
  </defs>
  
  <path d="M100 20 L160 50 L160 100 Q160 150 100 175 Q40 150 40 100 L40 50 Z" fill="url(#shieldGrad)"/>
  <path d="M100 30 L150 55 L150 100 Q150 140 100 162 Q50 140 50 100 L50 55 Z" fill="url(#innerGrad)" opacity="0.3"/>
  
  <circle cx="100" cy="85" r="30" fill="#fff" opacity="0.2"/>
  <circle cx="100" cy="85" r="22" fill="#fff" opacity="0.3"/>
  
  <path d="M85 75 L100 60 L115 75 L115 95 L100 110 L85 95 Z" fill="#fff"/>
  
  <circle cx="100" cy="85" r="8" fill="url(#shieldGrad)"/>
  
  <path d="M92 85 L100 77 L108 85 L100 93 Z" fill="#fff"/>
  
  <text x="100" y="135" text-anchor="middle" font-family="Arial, sans-serif" font-size="11" fill="#fff" font-weight="bold">AI</text>
  
  <path d="M75 180 L100 190 L125 180" fill="none" stroke="url(#shieldGrad)" stroke-width="3" stroke-linecap="round"/>
  
  <text x="100" y="198" text-anchor="middle" font-family="Arial, sans-serif" font-size="9" fill="#be185d" font-weight="bold">COPILOT</text>
</svg>