<svg xmlns="http://www.w3.org/2000/svg" viewBox="0 0 200 200" width="200" height="200">
  <defs>
    <linearGradient id="robotGrad" x1="0%" y1="0%" x2="100%" y2="100%">
      <stop offset="0%" style="stop-color:#6366f1;stop-opacity:1" />
      <stop offset="100%" style="stop-color:#8b5cf6;stop-opacity:1" />
    </linearGradient>
    <linearGradient id="screenGrad" x1="0%" y1="0%" x2="0%" y2="100%">
      <stop offset="0%" style="stop-color:#1e1b4b;stop-opacity:1" />
      <stop offset="100%" style="stop-color:#312e81;stop-opacity:1" />
    </linearGradient>
  </defs>
  
  <rect x="50" y="40" width="100" height="120" rx="15" fill="url(#robotGrad)"/>
  
  <rect x="60" y="55" width="80" height="50" rx="8" fill="url(#screenGrad)"/>
  
  <circle cx="80" cy="80" r="8" fill="#22d3ee">
    <animate attributeName="opacity" values="1;0.5;1" dur="2s" repeatCount="indefinite"/>
  </circle>
  <circle cx="120" cy="80" r="8" fill="#22d3ee">
    <animate attributeName="opacity" values="0.5;1;0.5" dur="2s" repeatCount="indefinite"/>
  </circle>
  
  <rect x="70" y="115" width="60" height="8" rx="4" fill="#c4b5fd"/>
  <rect x="80" y="130" width="40" height="8" rx="4" fill="#c4b5fd"/>
  <rect x="90" y="145" width="20" height="8" rx="4" fill="#c4b5fd"/>
  
  <rect x="30" y="70" width="15" height="30" rx="5" fill="url(#robotGrad)"/>
  <rect x="155" y="70" width="15" height="30" rx="5" fill="url(#robotGrad)"/>
  
  <circle cx="100" cy="30" r="8" fill="#f43f5e"/>
  
  <path d="M85 175 L100 190 L115 175" fill="none" stroke="url(#robotGrad)" stroke-width="4" stroke-linecap="round"/>
  
  <text x="100" y="195" text-anchor="middle" font-family="Arial, sans-serif" font-size="10" fill="#6366f1" font-weight="bold">AI COPILOT</text>
</svg>